HIERARCHY
ROOT Hips
{
  OFFSET 40.9569 92.9089 9.15813
  CHANNELS 6 Xposition Yposition Zposition Zrotation Xrotation Yrotation
  JOINT spine
  {
    OFFSET 0 7.4756 0.429885
    CHANNELS 3 Zrotation Xrotation Yrotation
    JOINT spine1
    {
      OFFSET 0 9.92301 0
      CHANNELS 3 Zrotation Xrotation Yrotation
      JOINT spine2
      {
        OFFSET 0 9.50804 0
        CHANNELS 3 Zrotation Xrotation Yrotation
        JOINT Neck
        {
          OFFSET 0 24.4111 1.16384
          CHANNELS 3 Zrotation Xrotation Yrotation
          JOINT Head
          {
            OFFSET 0 7.37523 0
            CHANNELS 3 Zrotation Xrotation Yrotation
            End Site
            {
              OFFSET 0 17.8522 -5.88741
            }
          }
        }
        JOINT RightShoulder
        {
          OFFSET -4.00356 10.2679 -0.557468
          CHANNELS 3 Zrotation Xrotation Yrotation
          JOINT RightArm
          {
            OFFSET 0 13.4673 0
            CHANNELS 3 Zrotation Xrotation Yrotation
            JOINT RightArmRoll
            {
              OFFSET 0 6.79858 0
              CHANNELS 3 Zrotation Xrotation Yrotation
              JOINT RightForeArm
              {
                OFFSET 0 19.8018 0
                CHANNELS 3 Zrotation Xrotation Yrotation
                JOINT RightForeArmRoll
                {
                  OFFSET 0 7.62905 0
                  CHANNELS 3 Zrotation Xrotation Yrotation
                  JOINT RightHand
                  {
                    OFFSET 0 15.3098 0
                    CHANNELS 3 Zrotation Xrotation Yrotation
                    End Site
                    {
                      OFFSET 0 0 0
                    }
                  }
                }
              }
            }
          }
        }
        JOINT LeftShoulder
        {
          OFFSET 4.00356 10.2679 -0.557468
          CHANNELS 3 Zrotation Xrotation Yrotation
          JOINT LeftArm
          {
            OFFSET 0 13.4673 0
            CHANNELS 3 Zrotation Xrotation Yrotation
            JOINT LeftArmRoll
            {
              OFFSET 0 6.79858 0
              CHANNELS 3 Zrotation Xrotation Yrotation
              JOINT LeftForeArm
              {
                OFFSET 0 19.8018 0
                CHANNELS 3 Zrotation Xrotation Yrotation
                JOINT LeftForeArmRoll
                {
                  OFFSET 0 7.62905 0
                  CHANNELS 3 Zrotation Xrotation Yrotation
                  JOINT LeftHand
                  {
                    OFFSET 0 15.3098 0
                    CHANNELS 3 Zrotation Xrotation Yrotation
                    End Site
                    {
                      OFFSET 0 0 0
                    }
                  }
                }
              }
            }
          }
        }
      }
    }
  }
  JOINT RightUpLeg
  {
    OFFSET -6.62609 -1.21505 -1.01927
    CHANNELS 3 Zrotation Xrotation Yrotation
    JOINT RightUpLegRoll
    {
      OFFSET 0 17.9517 0
      CHANNELS 3 Zrotation Xrotation Yrotation
      JOINT RightLeg
      {
        OFFSET 0 -22.2304 0
        CHANNELS 3 Zrotation Xrotation Yrotation
        JOINT RightLegRoll
        {
          OFFSET 0 22.3032 0
          CHANNELS 3 Zrotation Xrotation Yrotation
          JOINT RightFoot
          {
            OFFSET 0 18.5636 0
            CHANNELS 3 Zrotation Xrotation Yrotation
            JOINT RightToeBase
            {
              OFFSET 0 15.5183 0
              CHANNELS 3 Zrotation Xrotation Yrotation
              End Site
              {
                OFFSET 0.00657761 7.51539 -0.866263
              }
            }
          }
        }
      }
    }
  }
  JOINT LeftUpLeg
  {
    OFFSET 6.62609 -1.21505 -1.01927
    CHANNELS 3 Zrotation Xrotation Yrotation
    JOINT LeftUpLegRoll
    {
      OFFSET 0 17.9518 0
      CHANNELS 3 Zrotation Xrotation Yrotation
      JOINT LeftLeg
      {
        OFFSET 0 22.2303 0
        CHANNELS 3 Zrotation Xrotation Yrotation
        JOINT LeftLegRoll
        {
          OFFSET 0 22.5093 0
          CHANNELS 3 Zrotation Xrotation Yrotation
          JOINT LeftFoot
          {
            OFFSET 0 18.3575 0
            CHANNELS 3 Zrotation Xrotation Yrotation
            JOINT LeftToeBase
            {
              OFFSET 0 15.5183 0
              CHANNELS 3 Zrotation Xrotation Yrotation
              End Site
              {
                OFFSET -0.029478 7.51538 -0.866263
              }
            }
          }
        }
      }
    }
  }
}
MOTION
Frames: 6
Frame Time: 0.00208333
48.4056 93.4329 3.76015 5.14169 -3.02872 51.293 0.194612 -0.428345 0.3023 0.38902 3.14876 0.580681 0.382532 4.79378 0.574713 -15.0416 1.39246 2.92739 11.9853 6.43709 0.952637 57.7128 -1.65219 -0.913149 151.275 37.0339 -100.697 -1.96472e-007 1.44399e-006 -2.88945e-006 33.6879 65.271 -19.6796 -7.97382e-006 -1.15833e-005 -2.99999 8.02884 -4.95105 0.697332 -67.9991 -3.78547 3.04091 -90.3598 65.6342 23.8455 -1.59372e-006 -9.42338e-007 9.58834e-006 -24.2049 49.7443 14.2306 0.00011748 8.51284e-006 3.00483 -8.02975 -4.9512 -0.697644 175.808 -0.0310604 -0.0418654 180 7.01498e-015 178.729 -177.872 17.4943 178.725 -6.72989e-006 -5.45177e-006 0.399965 -19.8675 69.2937 20.6764 8.16731 27.4529 -0.576332 179.85 3.90045 4.57166 4.54188e-006 -4.6773e-006 -1.07022 -0.0280222 -11.9873 0.41115 5.39004e-007 -2.5754e-006 -0.0155921 17.177 65.6997 -17.7905 -8.1365 25.2327 3.48774 
48.3409 93.4285 3.78505 5.15431 -3.01569 51.4664 0.195079 -0.428363 0.305672 0.389946 3.15055 0.587402 0.383379 4.79557 0.581423 -15.0723 1.43812 2.89948 12.0333 6.43504 0.915148 57.6557 -1.66051 -0.912364 151.195 36.9668 -100.451 -1.96472e-007 1.44399e-006 -2.88945e-006 33.5898 65.2453 -19.6168 -7.97382e-006 -1.15833e-005 -2.99999 8.02884 -4.95105 0.697332 -67.9901 -3.79957 3.04751 -90.2653 65.711 23.8371 -1.59372e-006 -9.42338e-007 9.58834e-006 -24.2544 49.3334 14.0911 0.00011748 8.51284e-006 3.00483 -8.02975 -4.9512 -0.697644 175.871 -0.114394 -0.0505358 180 7.01498e-015 178.729 -177.913 17.43 178.738 -6.72989e-006 -5.45177e-006 0.400048 -19.8935 69.3246 20.7056 8.16719 27.4438 -0.585669 179.877 3.94372 4.56842 4.54188e-006 -4.6773e-006 -1.07022 -0.0104912 -12.012 0.413947 5.39004e-007 -2.5754e-006 -0.0156784 17.1815 65.7064 -17.7954 -8.1365 25.2327 3.48774 
48.2896 93.4206 3.83068 5.16725 -3.0032 51.6407 0.195691 -0.428237 0.309086 0.39116 3.15275 0.594207 0.384513 4.79777 0.588212 -15.1033 1.48265 2.87078 12.0812 6.43378 0.876845 57.5954 -1.67059 -0.912358 151.12 36.8958 -100.21 -1.96472e-007 1.44399e-006 -2.88945e-006 33.4888 65.2242 -19.5549 -7.97382e-006 -1.15833e-005 -2.99999 8.02884 -4.95105 0.697332 -67.982 -3.81299 3.05382 -90.1705 65.7906 23.8287 -1.59372e-006 -9.42338e-007 9.58834e-006 -24.3078 48.9204 13.9553 0.00011748 8.51284e-006 3.00483 -8.02975 -4.9512 -0.697644 175.935 -0.198479 -0.0589292 180 7.01498e-015 178.729 -177.954 17.3664 178.751 -6.72989e-006 -5.45177e-006 0.40016 -19.9201 69.356 20.7353 8.16703 27.4348 -0.594829 179.905 3.9866 4.56525 4.54188e-006 -4.6773e-006 -1.07022 0.00716902 -12.0376 0.416786 5.39004e-007 -2.5754e-006 -0.0158067 17.1862 65.7136 -17.8007 -8.1365 25.2327 3.48774 
48.2315 93.4235 3.88459 5.18041 -2.99108 51.8155 0.196403 -0.42801 0.31253 0.392575 3.15524 0.601071 0.385847 4.80026 0.595057 -15.1346 1.52637 2.84154 12.1289 6.43307 0.83797 57.5328 -1.68191 -0.912898 151.051 36.8216 -99.9736 -1.96472e-007 1.44399e-006 -2.88945e-006 33.3857 65.2063 -19.4936 -7.97382e-006 -1.15833e-005 -2.99999 8.02884 -4.95105 0.697332 -67.9744 -3.82594 3.05992 -90.0752 65.8721 23.8202 -1.59372e-006 -9.42338e-007 9.58834e-006 -24.3647 48.506 13.823 0.00011748 8.51284e-006 3.00483 -8.02975 -4.9512 -0.697644 175.999 -0.283091 -0.0671289 180 7.01498e-015 178.729 -177.996 17.3033 178.764 -6.72989e-006 -5.45177e-006 0.400295 -19.9471 69.3877 20.7654 8.16685 27.4258 -0.603864 179.933 4.02921 4.56212 4.54188e-006 -4.6773e-006 -1.07022 0.0249206 -12.0639 0.419654 5.39004e-007 -2.5754e-006 -0.0159646 17.1913 65.7212 -17.8063 -8.1365 25.2327 3.48774 
48.1782 93.4238 3.92038 5.19367 -2.97915 51.9907 0.197173 -0.427727 0.315991 0.394104 3.15789 0.607969 0.387295 4.80291 0.601933 -15.1659 1.56965 2.81198 12.1764 6.43266 0.798769 57.469 -1.69394 -0.91375 150.986 36.7453 -99.7395 -1.96472e-007 1.44399e-006 -2.88945e-006 33.2815 65.1902 -19.4327 -7.97382e-006 -1.15833e-005 -2.99999 8.02884 -4.95105 0.697332 -67.9672 -3.83862 3.0659 -89.9798 65.9547 23.8117 -1.59372e-006 -9.42338e-007 9.58834e-006 -24.4247 48.0905 13.6938 0.00011748 8.51284e-006 3.00483 -8.02975 -4.9512 -0.697644 176.063 -0.368004 -0.0752181 180 7.01498e-015 178.729 -178.037 17.2405 178.777 -6.72989e-006 -5.45177e-006 0.400441 -19.9743 69.4197 20.7959 8.16666 27.4169 -0.612827 179.96 4.07166 4.55901 4.54188e-006 -4.6773e-006 -1.07022 0.0427255 -12.0905 0.422539 5.39004e-007 -2.5754e-006 -0.0161393 17.1965 65.7291 -17.8121 -8.1365 25.2327 3.48774 
48.1341 93.4215 3.98052 5.20693 -2.96725 52.166 0.197957 -0.427429 0.319456 0.395661 3.16059 0.614876 0.388772 4.8056 0.608818 -15.1973 1.61281 2.78235 12.224 6.43233 0.759487 57.4048 -1.70614 -0.914679 150.921 36.6674 -99.5072 -1.96472e-007 1.44399e-006 -2.88945e-006 33.1771 65.1745 -19.372 -7.97382e-006 -1.15833e-005 -2.99999 8.02884 -4.95105 0.697332 -67.96 -3.85123 3.07185 -89.8842 66.0377 23.8031 -1.59372e-006 -9.42338e-007 9.58834e-006 -24.4877 47.6746 13.5675 0.00011748 8.51284e-006 3.00483 -8.02975 -4.9512 -0.697644 176.127 -0.452992 -0.0832798 180 7.01498e-015 178.729 -178.079 17.1778 178.79 -6.72989e-006 -5.45177e-006 0.40059 -20.0017 69.4517 20.8265 8.16647 27.408 -0.62177 179.988 4.11407 4.5559 4.54188e-006 -4.6773e-006 -1.07022 0.060546 -12.1172 0.425428 5.39004e-007 -2.5754e-006 -0.0163182 17.2017 65.737 -17.8179 -8.1365 25.2327 3.48774 
